<svg viewBox="0 0 200 200" xmlns="http://www.w3.org/2000/svg">
  <!-- Background Circle -->
  <circle cx="100" cy="100" r="90" fill="#4CAF50"/>
  
  <!-- Leaf Design -->
  <path d="M100 40 C140 40, 160 60, 160 100 C160 140, 140 160, 100 160 C60 160, 40 140, 40 100 C40 60, 60 40, 100 40 Z" fill="#81C784"/>
  
  <!-- Stem -->
  <path d="M100 70 L100 130" stroke="#2E7D32" stroke-width="8" stroke-linecap="round"/>
  
  <!-- Small Leaves -->
  <path d="M100 90 C110 90, 120 85, 120 75 C120 65, 110 60, 100 60" fill="#2E7D32"/>
  <path d="M100 90 C90 90, 80 85, 80 75 C80 65, 90 60, 100 60" fill="#2E7D32"/>
</svg>
